# xmcd
# 
# Track frame offsets:
#     150
#     21986
#     45627
#     73449
#     97521
#     116118
#     138481
#     166221
# 
# Disc length: 2496
# 
# Revision: 0
# Processed by: cddbd v1.5.2PL0 Copyright (c) Steve Scherf et al.
# Submitted via: fre:ac v1.0.17
# 
DISCID=6b09be08
DTITLE=PANDEMONIUM - Misanthropy
DYEAR=0
DGENRE=Black Metal
TTITLE0=The Black Forest
TTITLE1=God Delusion
TTITLE2=Necro Judas
TTITLE3=Stones Are Eternal
TTITLE4=Avant-Garde Underground
TTITLE5=Everlasting Opposition
TTITLE6=Only The Dead Will See The End Of War
TTITLE7=Misanthropy
EXTD=
EXTT0=
EXTT1=
EXTT2=
EXTT3=
EXTT4=
EXTT5=
EXTT6=
EXTT7=
PLAYORDER=
